HIERARCHY
ROOT Hips
{
  OFFSET 267.745 86.9975 -272.335
  CHANNELS 6 Xposition Yposition Zposition Zrotation Xrotation Yrotation
  JOINT LeftUpLeg
  {
    OFFSET 8.64259 1.95398 -2.38835
    CHANNELS 3 Zrotation Xrotation Yrotation
    JOINT LeftLeg
    {
      OFFSET 43.7702 0 0
      CHANNELS 3 Zrotation Xrotation Yrotation
      JOINT LeftFoot
      {
        OFFSET 40.6238 0 0
        CHANNELS 3 Zrotation Xrotation Yrotation
        JOINT LeftToeBase
        {
          OFFSET 12.7242 0 0
          CHANNELS 3 Zrotation Xrotation Yrotation
          End Site
          {
            OFFSET 0 0 0
          }
        }
      }
    }
  }
  JOINT RightUpLeg
  {
    OFFSET -8.2249 1.95398 -2.59336
    CHANNELS 3 Zrotation Xrotation Yrotation
    JOINT RightLeg
    {
      OFFSET 43.5653 0 0
      CHANNELS 3 Zrotation Xrotation Yrotation
      JOINT RightFoot
      {
        OFFSET 40.6238 0 0
        CHANNELS 3 Zrotation Xrotation Yrotation
        JOINT RightToeBase
        {
          OFFSET 12.7242 0 0
          CHANNELS 3 Zrotation Xrotation Yrotation
          End Site
          {
            OFFSET 0 0 0
          }
        }
      }
    }
  }
  JOINT Spine
  {
    OFFSET 0.165834 0.87714 6.61349
    CHANNELS 3 Zrotation Xrotation Yrotation
    JOINT Spine1
    {
      OFFSET 7.38963 1.71661e-005 0
      CHANNELS 3 Zrotation Xrotation Yrotation
      JOINT Spine2
      {
        OFFSET 11.9445 1.14441e-005 0
        CHANNELS 3 Zrotation Xrotation Yrotation
        JOINT Spine3
        {
          OFFSET 14.7254 4.19617e-005 0
          CHANNELS 3 Zrotation Xrotation Yrotation
          JOINT Spine4
          {
            OFFSET 10.9679 0 0
            CHANNELS 3 Zrotation Xrotation Yrotation
            JOINT RightShoulder
            {
              OFFSET 2.46616 -1.6653 3.69651
              CHANNELS 3 Zrotation Xrotation Yrotation
              JOINT RightArm
              {
                OFFSET 13.0012 0 0
                CHANNELS 3 Zrotation Xrotation Yrotation
                JOINT RightForeArm
                {
                  OFFSET 28.7848 1.52588e-005 0
                  CHANNELS 3 Zrotation Xrotation Yrotation
                  JOINT RightHand
                  {
                    OFFSET 26.5688 1.52588e-005 0
                    CHANNELS 3 Zrotation Xrotation Yrotation
                    End Site
                    {
                      OFFSET 0 0 0
                    }
                  }
                }
              }
            }
            JOINT LeftShoulder
            {
              OFFSET 2.38034 -1.29275 -3.7523
              CHANNELS 3 Zrotation Xrotation Yrotation
              JOINT LeftArm
              {
                OFFSET 16.3182 6.10352e-005 0
                CHANNELS 3 Zrotation Xrotation Yrotation
                JOINT LeftForeArm
                {
                  OFFSET 27.0901 0 0
                  CHANNELS 3 Zrotation Xrotation Yrotation
                  JOINT LeftHand
                  {
                    OFFSET 24.5451 1.52588e-005 0
                    CHANNELS 3 Zrotation Xrotation Yrotation
                    End Site
                    {
                      OFFSET 0 0 0
                    }
                  }
                }
              }
            }
            JOINT Neck
            {
              OFFSET 5.0226 -0.0266342 0
              CHANNELS 3 Zrotation Xrotation Yrotation
              JOINT Head
              {
                OFFSET 6.69364 2.86102e-005 0
                CHANNELS 3 Zrotation Xrotation Yrotation
                End Site
                {
                  OFFSET 0 0 0
                }
              }
            }
          }
        }
      }
    }
  }
}
MOTION
Frames:	15
Frame Time:	0.0416667
-176.247 83.424 162.941 100.192 56.5709 87.1304 179.251 17.5424 88.2864 -99.898 2.75277 3.39441 58.536 4.23172 5.5692 52.8065 -2.30908 3.94177 172.004 31.4354 95.5454 -57.5409 -18.7696 3.79513 72.467 -9.86414 -3.02381 32.3121 -1.46233 10.4219 0.0728128 8.66578 -91.809 9.51819 -0.669862 -3.5354 -2.1573 -0.824732 -3.50255 -24.6541 0.422905 -3.57331 -4.64141 0.422908 -3.57331 98.888 -42.8015 -87.7743 24.3435 -24.536 -4.24062 -15.3755 -1.118 -57.7038 -4.38111 0.0132407 -6.33115 -82.5712 -49.0241 89.6001 -24.6773 32.4057 -3.30713 11.24 -11.8349 -88.4695 -9.23535 0.309672 -11.0367 29.1367 0.35334 6.40329 -24.0293 -2.28962 0.400155 
-164.458 89.7704 151.023 101.131 59.5273 81.0041 -178.059 42.8937 79.105 -109.069 4.27217 2.88992 60.5006 5.04844 4.91947 54.1576 -2.23828 5.59745 173.379 14.0893 88.7082 -45.9461 -14.3818 2.76982 75.4057 -6.50952 6.35645 30.7624 -0.910118 5.5658 0.483196 8.50042 -91.2183 9.88834 0.409997 -2.4428 -1.78476 0.302127 -2.45846 -24.306 1.12514 -2.20684 -4.29336 1.12515 -2.20683 99.1769 -41.386 -87.3794 23.2383 -38.101 -8.05083 -15.5711 8.2265 -69.3103 -2.57169 0.0718719 -10.6154 -81.8649 -48.9496 90.6787 -20.5346 19.7402 3.18209 11.9826 -11.1112 -91.8668 -6.01166 0.135507 -10.9319 24.5549 -3.61996 8.149 -22.6312 -6.12709 -1.70349 
-153.031 99.0019 139.094 105.201 56.4355 72.6991 -171.175 51.1996 69.5023 -106.014 1.67883 2.82677 61.2457 3.33595 0.744812 54.8492 -2.32091 5.21977 174.66 1.83448 87.5812 -35.4432 -16.5464 -0.686893 46.2966 12.5609 16.8825 17.4433 2.60038 4.8582 0.899149 8.7273 -90.4634 9.41776 1.58471 -1.03998 -2.25272 1.53739 -1.10872 -24.794 1.82392 -0.515535 -4.78136 1.82392 -0.515529 99.7495 -42.4093 -86.3209 25.5716 -49.2201 -4.99078 -17.9104 13.9208 -74.9433 -1.1535 0.00101809 -11.1542 -80.9434 -45.0228 91.8643 -20.6817 10.7374 11.9425 16.6101 -10.7142 -92.8556 -2.26893 -0.100666 -8.89193 18.1112 -5.83798 8.77852 -20.9797 -7.36474 -6.15794 
-141.975 104.737 127.092 106.105 53.3799 72.6923 -176.35 47.3298 72.8992 -99.2772 -1.6688 2.79041 62.9902 3.96524 -1.6301 52.2045 -2.15053 5.21357 175.255 4.11236 87.191 -33.5352 -13.6281 -0.691497 49.3725 10.87 15.8343 4.98561 7.50645 -4.69188 1.0279 8.85851 -90.5678 9.16596 1.79597 -1.25295 -2.50443 1.73909 -1.33078 -25.0479 2.08947 -0.655107 -5.03522 2.08948 -0.655112 99.6413 -42.6739 -86.4928 26.6102 -59.1437 -1.92586 -19.8781 19.1925 -78.1833 4.73207 -0.369771 -12.3109 -80.0481 -41.5863 93.14 -19.0025 3.06243 20.3056 17.1654 -9.44023 -93.5213 -1.6573 -0.121699 -9.34877 15.8353 -4.98599 10.4478 -21.1119 -6.60649 -7.75813 
-130.862 104.999 115.079 102.405 49.9936 76.2477 179.366 40.1414 77.5752 -79.9881 2.34406 2.32032 60.0135 1.77419 -1.47747 51.7328 -2.67107 -1.26349 175.522 7.98855 87.1511 -20.9334 -8.51985 0.222009 47.8455 13.3214 20.6851 24.2424 1.86305 -5.42601 1.25145 8.6916 -90.7005 9.50448 2.17967 -1.55383 -2.16569 2.10919 -1.64828 -24.7128 2.54584 -0.826664 -4.70017 2.54584 -0.826665 99.0242 -43.2483 -87.5096 29.3702 -62.0476 1.80298 -16.7115 20.7748 -79.9383 3.42245 -0.250536 -11.4033 -79.3128 -40.1305 94.3301 -13.9759 -3.0822 23.2591 13.2816 -6.96422 -91.8054 -0.0868003 -0.209184 -10.3128 15.2614 -3.6293 12.3974 -21.7811 -5.66877 -8.13221 
-119.413 98.0011 103.083 106.242 51.2456 73.4716 174.702 34.1265 78.724 -57.2852 6.23005 2.89453 58.4309 0.134676 -2.73053 51.9391 -2.95943 -4.2231 173.981 5.13896 88.8166 -21.7677 -7.79068 1.92309 48.0487 12.1643 15.8123 37.8678 -2.20084 -6.72287 1.12774 8.77399 -90.8687 9.33841 1.85882 -1.85939 -2.33266 1.77518 -1.93938 -24.8731 2.33163 -1.21473 -4.86045 2.33163 -1.21474 99.1997 -44.2294 -87.1465 30.1771 -56.8585 3.37584 -18.7318 18.6066 -78.0683 4.52854 -0.357516 -12.2995 -78.9756 -41.0126 94.9313 -9.47046 -6.38252 21.7619 8.55262 -6.47937 -94.7205 6.07521 -0.357536 -7.82784 13.2527 -4.39757 12.5491 -20.479 -6.26795 -8.57797 
-108.206 90.2736 91.4926 109.18 53.9105 73.3595 172.827 29.4278 81.4474 -25.2592 9.88995 2.35812 48.3509 -4.68085 -6.47373 49.113 -2.68635 -6.80555 172.497 -3.53862 90.538 -38.2489 -8.90589 4.0075 75.5277 -15.8624 -10.0758 43.1476 -3.63396 -0.11667 0.914908 8.91839 -91.1999 9.04281 1.289 -2.45483 -2.62992 1.17975 -2.50915 -25.1573 1.96705 -1.95421 -5.14462 1.96705 -1.9542 98.6288 -45.2919 -88.0217 25.0941 -50.3267 -2.08637 -16.0815 15.4487 -76.6166 1.55509 -0.14306 -11.2915 -77.9585 -44.408 96.6712 -11.0163 -9.60061 17.2755 6.34537 -5.36526 -97.4802 8.07829 -0.497365 -8.79954 14.636 -4.50502 11.7578 -18.2526 -6.7499 -6.46018 
-94.7872 88.1024 78.9609 99.4799 51.7009 80.8124 175.845 31.847 83.6104 -6.72586 6.76786 1.04641 35.873 -12.8078 -11.2078 45.5811 -2.12125 -9.10356 174.664 -11.1169 95.5102 -34.2735 -6.40871 1.36754 80.0345 -12.1099 2.23201 48.0962 -5.12377 -4.30335 1.06171 8.30951 -90.687 10.2707 1.80119 -1.53152 -1.40001 1.73205 -1.60931 -23.9424 2.17822 -0.919269 -3.92973 2.17823 -0.919282 99.0408 -45.5104 -87.3266 23.97 -51.1623 -6.27365 -16.1912 13.483 -71.8091 2.18676 -0.176467 -11.153 -78.7031 -48.0891 95.533 -18.3814 -4.73145 15.6768 6.96574 -5.90018 -92.3641 3.82452 -0.365218 -9.48336 15.8251 -3.87447 9.12401 -19.3007 -5.583 -5.45826 
-80.8015 86.3476 65.6126 92.1672 45.7247 83.3995 -179.442 38.807 81.9612 -32.1706 9.87851 -0.762275 52.3582 -5.52242 -7.90543 32.236 -0.170461 -2.50132 172.731 -13.573 86.3442 -37.8084 -10.7171 -1.34945 57.4354 7.07476 23.1881 45.1882 -3.50101 9.10131 1.26855 7.78049 -89.6206 11.3093 2.70124 0.486231 -0.358849 2.72001 0.366779 -22.9124 2.43015 1.27602 -2.89971 2.43015 1.27602 99.0143 -45.3278 -87.3829 32.5866 -53.1647 -0.166811 -17.381 12.1798 -68.1951 2.671 -0.175361 -10.2336 -79.4282 -50.7904 94.484 -20.5298 -0.518996 12.7537 9.76169 -5.34366 -86.303 -1.278 -0.158554 -11.4831 21.471 -2.46003 8.44371 -22.4257 -4.18267 -6.01077 
-67.968 83.6932 54.7096 100.201 49.138 73.9046 -179.083 35.0137 74.6969 -56.2637 12.8604 -0.0247223 68.7139 8.35208 7.43939 31.0857 -0.0552351 -1.95638 171.428 -0.522302 89.3836 -82.9747 -27.0203 -1.87738 51.382 5.98828 2.88394 22.5282 1.78959 -2.33325 0.438942 8.66387 -88.963 9.52789 1.34261 1.94835 -2.14372 1.42704 1.88738 -24.6691 0.695178 2.26165 -4.65649 0.69516 2.26163 99.3828 -43.5969 -86.8805 33.5435 -45.6224 0.434737 -16.0818 8.07539 -64.5213 -0.975039 -0.0110827 -8.83974 -83.4109 -53.6245 88.7565 -18.2993 6.65357 -4.31202 10.8147 -4.1397 -78.8306 0.293069 -0.231681 -10.3485 29.4517 -2.13915 8.78964 -23.6016 -4.37505 -6.88239 
-55.7286 86.2322 44.7108 101.967 50.1326 75.9286 179.129 20.238 77.9269 -55.9777 17.6809 2.50625 74.9124 15.9896 14.1747 41.279 -1.41582 1.43506 172.211 32.5298 83.2104 -119.22 -22.5736 -3.02511 52.7512 4.11564 0.718099 21.1805 2.23571 -1.47497 -0.280137 8.77816 -89.0639 9.31752 -0.138064 1.86922 -2.35488 -0.0556908 1.87347 -24.8799 -0.69338 1.74138 -4.86723 -0.693376 1.74138 100.525 -44.3548 -84.9158 29.1943 -29.9116 3.10244 -19.4953 2.60507 -65.0084 -5.5987 0.0631104 -7.49502 -83.9702 -49.4509 87.4937 -13.9551 16.7057 -24.0761 8.93239 -4.34451 -76.4883 -1.4585 -0.137626 -11.1032 29.6262 -2.16053 2.37904 -25.3306 -2.43786 -3.13009 
-43.3079 96.4665 34.4083 100.863 53.8318 85.3345 179.271 5.15431 92.3114 -38.8049 16.0206 7.44939 59.0349 -0.81843 -4.88599 43.5243 -1.61146 -1.98478 156.207 54.3326 101.296 -122.712 -12.3449 -3.95808 56.217 0.615126 -2.58584 37.7989 -2.26719 -6.11605 -1.09981 8.47925 -90.0238 9.92968 -2.20272 0.137265 -1.73941 -2.19452 0.234109 -24.2895 -2.14213 -0.531385 -4.2769 -2.14213 -0.5314 101.16 -42.6537 -83.8869 24.3235 -16.2589 11.0364 -20.1483 1.0688 -69.0304 -9.26636 0.108563 -6.83564 -83.3886 -46.683 88.1016 -11.2427 27.0885 -28.6761 8.38512 -8.73337 -85.0193 -1.7788 -0.122777 -10.9339 27.0276 -0.3899 -0.56307 -26.0017 -0.216521 0.276253 
-30.9813 105.639 24.2751 101.801 55.0345 85.3463 178.776 1.12736 91.2893 -35.1315 12.4203 6.67105 38.2039 -11.143 -10.0171 11.314 1.52936 1.77364 159.088 58.6792 100.426 -113.581 -7.28024 -3.42691 70.0504 -6.34579 4.7449 35.8119 -1.55054 -7.51558 -1.275 8.47428 -90.0421 9.92847 -2.56022 0.124993 -1.73998 -2.55223 0.237615 -24.2945 -2.47935 -0.650729 -4.28186 -2.47935 -0.650732 101.92 -40.6112 -82.5932 18.3047 -7.13291 17.1874 -16.2078 -0.547066 -68.3037 -10.0557 0.188235 -7.70351 -83.3817 -46.5716 88.0997 -5.66419 38.0801 -30.3744 7.1414 -13.6171 -94.1386 -4.46462 0.017928 -10.3039 25.7246 -0.281427 -2.37203 -26.7645 0.453233 0.735167 
-18.5759 109.572 13.6144 102.592 54.5797 87.4374 179.142 1.44037 91.0575 -28.116 13.6584 6.77514 42.298 -9.92803 -13.1036 9.21555 0.430249 6.29772 165.531 51.5576 98.701 -97.3077 -17.5729 -1.16036 66.9839 -1.14093 10.9491 49.2145 -5.59624 -5.40368 -1.17679 8.66501 -90.3331 9.53923 -2.49614 -0.468533 -2.12938 -2.51436 -0.358167 -24.6799 -2.2399 -1.19741 -4.6673 -2.2399 -1.19741 101.078 -38.8886 -84.121 10.2191 -4.88549 19.0013 -7.91864 -0.613997 -60.7212 -13.5123 0.229428 -7.35989 -83.9666 -46.703 87.1914 -4.17434 47.0906 -28.8376 7.05078 -17.8319 -101.11 -5.45369 0.0873826 -10.7946 25.7439 -0.589162 -4.30843 -28.1614 0.547606 2.18127 
-6.12173 106.916 3.17116 100.45 57.2243 89.5886 -177.362 4.93593 90.3189 -17.8193 12.3556 3.43226 38.5332 -13.1154 -14.4347 13.9008 1.43522 0.472486 169.609 43.5798 95.7464 -76.3076 -18.0929 1.17279 67.0549 1.14424 16.2035 53.3322 -6.58026 -3.22992 -1.26105 8.58734 -90.4439 9.69266 -2.71447 -0.6693 -1.97556 -2.7413 -0.549113 -24.5279 -2.38777 -1.45455 -4.51528 -2.38776 -1.45456 101.357 -38.0533 -83.6373 2.54186 -2.46288 17.3877 -3.94382 -1.78285 -48.5606 -13.3414 0.184416 -7.02298 -84.6242 -46.5699 86.1389 -5.25942 51.0568 -26.6392 5.72776 -19.0831 -103.63 -8.69326 0.294632 -11.4227 24.3298 -1.46001 -6.75521 -28.6271 0.280846 3.27145 
